/* XPM */
static char *f7b35f0422024e33f483e1a6e5a56aa1HwAIGdnr9G5j8iqd[] = {
/* columns rows colors chars-per-pixel */
"64 64 187 2 ",
"   c #001D02",
".  c #002302",
"X  c #032600",
"o  c #012A00",
"O  c #022D02",
"+  c #002A04",
"@  c #052904",
"#  c #042F05",
"$  c #003200",
"%  c #013503",
"&  c #063600",
"*  c #023605",
"=  c #083000",
"-  c #003900",
";  c #033C00",
":  c #063F00",
">  c #003D04",
",  c #093A02",
"<  c #0B3C04",
"1  c #0E3E07",
"2  c #043808",
"3  c #004201",
"4  c #074000",
"5  c #024500",
"6  c #054700",
"7  c #004606",
"8  c #0B4303",
"9  c #0D4405",
"0  c #004B02",
"q  c #074800",
"w  c #004C00",
"e  c #044F00",
"r  c #024807",
"t  c #004F05",
"y  c #084901",
"u  c #0E4C04",
"i  c #054109",
"p  c #0A450D",
"a  c #054909",
"s  c #084B0B",
"d  c #0A4D0D",
"f  c #0E4F0F",
"g  c #104707",
"h  c #124F07",
"j  c #13490A",
"k  c #174C0D",
"l  c #005300",
"z  c #075100",
"x  c #005502",
"c  c #035107",
"v  c #005704",
"b  c #0B5301",
"n  c #0E5402",
"m  c #065900",
"M  c #005F01",
"N  c #005805",
"B  c #045A07",
"V  c #0A5A00",
"C  c #0E5D00",
"Z  c #045108",
"A  c #08530A",
"S  c #0B550C",
"D  c #0F570F",
"F  c #065B08",
"G  c #0A5D0B",
"H  c #0C5E0C",
"J  c #115604",
"K  c #145806",
"L  c #145109",
"P  c #18540C",
"I  c #165A08",
"U  c #195C0B",
"Y  c #164D15",
"T  c #105011",
"R  c #185616",
"E  c #125911",
"W  c #165C14",
"Q  c #205415",
"!  c #006003",
"~  c #006600",
"^  c #016104",
"/  c #056307",
"(  c #0A6300",
")  c #006800",
"_  c #066D06",
"`  c #0E6E00",
"'  c #096E07",
"]  c #076408",
"[  c #096509",
"{  c #0C660B",
"}  c #0E670C",
"|  c #006A0D",
" . c #0C6F09",
".. c #116700",
"X. c #156105",
"o. c #10680D",
"O. c #007000",
"+. c #017401",
"@. c #057604",
"#. c #087705",
"$. c #007D00",
"%. c #047F01",
"&. c #0C7807",
"*. c #00730D",
"=. c #0E700A",
"-. c #007B09",
";. c #007E0E",
":. c #14730F",
">. c #127B0B",
",. c #167D0F",
"<. c #006C10",
"1. c #046F14",
"2. c #0F6B19",
"3. c #126110",
"4. c #146311",
"5. c #166413",
"6. c #186514",
"7. c #146B10",
"8. c #176C12",
"9. c #1C6817",
"0. c #196E14",
"q. c #1E621A",
"w. c #1F6A1A",
"e. c #0B7217",
"r. c #077914",
"t. c #177511",
"y. c #197612",
"u. c #1D7117",
"i. c #1E7916",
"p. c #117419",
"a. c #127D19",
"s. c #167F1C",
"d. c #19791E",
"f. c #206212",
"g. c #21651D",
"h. c #226D1C",
"j. c #20731A",
"k. c #25701F",
"l. c #25771D",
"z. c #217B18",
"x. c #237D1B",
"c. c #267F1C",
"v. c #1F7D22",
"b. c #266920",
"n. c #257927",
"m. c #227F24",
"M. c #2B7B22",
"N. c #2E7E25",
"B. c #337323",
"V. c #008700",
"C. c #098003",
"Z. c #0D8205",
"A. c #0F8C04",
"S. c #00870C",
"D. c #00890F",
"F. c #16860C",
"G. c #00920D",
"H. c #028112",
"J. c #0A8315",
"K. c #038B12",
"L. c #1C8013",
"P. c #1A8810",
"I. c #1E8A13",
"U. c #118619",
"Y. c #15881B",
"T. c #1B8B1E",
"R. c #1D9310",
"E. c #129019",
"W. c #149A18",
"Q. c #228D16",
"!. c #248619",
"~. c #29811F",
"^. c #28891D",
"/. c #219E10",
"(. c #2C941E",
"). c #20A01F",
"_. c #1C8320",
"`. c #208622",
"'. c #2B8320",
"]. c #218F22",
"[. c #2E8E22",
"{. c #288328",
"}. c #298C29",
"|. c #318926",
" X c #269226",
".X c #239923",
"XX c #2A9E28",
/* pixels */
"7 > Z.G : - d.z 3 4 N t 3 Z ^ $ S S A z H n M t % ; x ,.q , - 3 & ] N 0 A / z _.' % O 9.) 5 r - 9.- > Z.G : - d.z 3 4 N t 3 A ] ",
"E.. 3 n *.s ; D./ 0 d : 3 8.z V #.7 G 6 a.s.8 y.O.C O $ 8 r.W.*.: c.8 O h.X w $ } L.&.G - !.) [ G Y.. 3 n *.s ; D./ 0 d : 3 7.c ",
"i a.] 8.,.;.} { _ G C.@.z c u.E./ F r./ > & o.3 ^ i.) $.y o , y Z ; B . 4.3 s Z 0 C % ; ! & { v $ > a.] 8.,.;.} { _ G C.@.z Z 6.",
"=.3 l C o D r.X c ; > h.8.t c O s / G K Q.G >.- i t : i C z ] V {  .).x , 6.^ >.O Z &.$ ; = 3 B / ] 3 l C o D r.X c ; > h.8.t 3 ",
"! 3 > L c x : / & 3.{ v Z u 8 r.o.$ y O D $ , C  .$ l.0.G % d ^  .o T U.z 7 m O i.. Z %.A.&.7./ q z 3 > L c x : / & 3.{ v Z u s ",
"4 =.} N q 3 :.y N { =.N ^. .l & &.7 q.3 j l ; s :.; e l +.>.7 $ 8.Z - o p % L.&.x ) $ $ h {.{ H } t =.} N q 3 :.y N { =.N ^.=.M ",
"x.- 5.0  X' r !.} c , 6.$ ~.,.7 h } &.Z.& d.%.q y 3 O 2 % 6.#.0 - F D..X: =.7 G w.I.0 v O 3 % w - c.- 5.0  X' r !.} c , 6.$ ~.I.",
"3 - 6 9 O P 0 $ w.6 q y M i $ m c F O q U.. P <.; >.A.7 ) X & 8 / X % H 8 q C M y 7 ].F.3 6 N ! % : - 6 9 O P 0 $ w.6 q y M 8 - ",
"#.Z.=.) E.3 :.O.* S #.=.6.1.^ 5.] z.=.D.7 d.C.c 8.h o $ - ) U._ { S.x E G o.. c c $ 7 - x M.q ].) ) Z.=.) E.3 :.O.* S #.=.6.8.:.",
". 4 ) O x.3 $ 7 s._ o N - O ; % 8.[ x c x , , * - +.O.V.&.$ : : u 0.o o.o M % a e.% x 3 : 2.C x x # 4 ) O x.3 $ 7 s._ o N - O 8 ",
"C.H.o.7.8 3.Y.O $ E.-.@.y q H :.w & O 8 J { .X) ] - $ i M.N v o.N 4 H.7 o.7 H } b >.j.[ X % O d 6.+.H.o.7.8 3.Y.O $ E.-.@.y q e ",
"> t i.~ O 7 4.) { o 7 S b O.c 8 y i.&.q } X x.; 0 a x M C O : t 0 O H O.O o.O l x $ q _ +.=.A.u O < t i.~ O 7 4.) { o 7 S b +.[ ",
"Z 7 ; - o.[ ! q - o j.=.o , 3 p.u._ , r > G $ - f.w % f } 4 [ : N c % W C.t 8 : !.Z.' ; 0 8 - ^ >.N 7 ; - o.[ ! q - o j.=.o , { ",
"S Z d.>.M o & v.+.X $ v.,.=.F *.0 h ; l.C.G O.^ ; L C.B - ^ z - v x , < A H.w 7 $ $ - u.y.c q Z 3 c Z d.>.M o & v.+.X $ v.,.:.J ",
">.{ 8 { F.Z F H 7 -.y > X { ) 3 0 :.) n c o W 0.N C v { v 7.L.G.q ;.0 3 ! u U.&.N S F.>.] .X=.G E.' { 8 { F.Z F H 7 -.y > X } N ",
"x z T.C 8.r.# S t e R.E.;.9 $ t ; o h % h z u 3.m - r., z 0 $ j $ O d.G Z Q.t $ [.G 7 8 4.6 ; y s z z T.C 8.r.# S t e R.E.;.9 & ",
"M.7 % 2.t % ) p.u.q : o ] q G 5.8.t ! R.!.x >.$ s 0 R ) - > >.% N z / Z . 1 5.O ; - x.l ; F @.H ] l.7 % 2.t % ) p.u.q : o ] 7 O ",
"_ } / ! B M $ z o $ !.B $ .XA.L.; O - : - & I #.N } ,._ ] - D - Z _ H ' e C.7 / >.$.3 [ ) A w X h ( } / ! B M $ z o $ !.B $ .XZ.",
"y.=.z ; z ^ O d.O.P.O G 3 % y r ! ^ L.&.8.b $ * $ K 8 , 8 3 u.M.M o.c & o.5.|.M $ G o U 8 / z *.- 6.=.z ; z ^ O d.O.P.O G 3 % N ",
", ^ x X E l.! $ ; q ~ * D # s O 9.) 8 c.=.S.K.G.- <.-  X).C u.& % , t ; 6 0.$ J.& s N ] :.o.0  .t * ^ x X E l.! $ ; q ~ * D O * ",
"7 s z.% [ N =.[ ~.0.7.] - ^ z G B > 7 * $ 6 , 1 A 3 t 1 2 I G O.c t l.x Z N $ * x.] +.- $ M.% 3 ^ q s z.% [ N =.[ ~.0.7.] - M 3 ",
"E.v q Z.Z , $   T X h U.N O.S $ > ! ) N Z 4 ,.=.x z % q N 3 3 } E.x 3 X A 0 G C H , I A.t c 5.8.8.U.v q Z.Z , $   T X h U.N +.' ",
"8 o.u.8 !.t ).$.0 ` } G O / #.I.2 0 - y R.[ 7 ].M & O.4 x z ;.o.i.|.S._ ! } !.t M 3 $ S t.3 _ v F a o.u.8 !.t ).$.0 ` } G O / ;.",
"O.$ T O 7 o j t : $ $ J - 9.& a ; l.i.t 8 X.$ % j.N u.) l.- s t b 3 I c x 3 B - $ 0.q O g i.8.5.- ) $ T O 7 o j t : $ $ J - 9.; ",
"w. .) & 7.) y H e.A.&.$ v 6.6 F.%.! H.&.- / @.F.o.w c & O X O % &   s _ x - k.#.z ; b x $ 7 o - - h. .) & 7.) y H e.A.&.$ v 9.&.",
"w & a r.[ : V , 0.- 6.$.^ o.3 < c 8 $ o.$ 6.o r r $ $ 8.M @.: H.' S.. o.*.Z.+ 3 3 U.+.C F.F.:.) x Z & a r.[ : V , 0.- 6.$.^ o.N ",
"N F.G @ T X I.+.N - - % G - G ] x p.N $ 3.3 +.; 3.F.R.F 3 & ] ' % p F 7 t 0 0.!.&.3 - 0 3.0.- N - G F.G @ T X I.+.N - - % G - | ",
"J x :.C t.- * O l.M ) ] & [ x.8.e.P.> r.L.#.6.$ &.6.q Z ..&.: x.(.*.3 >.q l.3 : 8 / ^ y.O s B 7 * 0 x :.C t.- * O l.M ) ] & ] j.",
"N n - @ h t c _ % 3 y..X0 > 3 7 Z -  X: o M i.F t N U.7 - v ; > O - K.r.3 $ Z L.K.; - u 8 7 } ' O.y n - @ h t c _ % 3 y..X0 > 8 ",
"M x.' =.- H 4 ^ z $ O % 4.$.:.: c 3 $ o.> - o w.N - c '.; W e.A.Z.& ; % a N./ q $ D M m }.[ 9.X g l x.' =.- H 4 ^ z $ O % 4.$.e.",
"- * 6.x 7 C - 0._.R.:.o.: $ 8 =.} z { D @.H.' c ] . q.l.O.=.& 8 E ) q , O 8 u.{ q H 3 X g.7 8 7 c - * 6.x 7 C - 0._.R.:.o.: $ : ",
"/ $ > w 3 e.o.> p y o.; D } t O 9.8.) +.0 - 7 >.E.3 3 > t :.o c - M M ) w % $ l.K.~ e.t % H t.N ) F $ > w 3 e.o.> p y o.; D } 0 ",
"Z ; q Z ) o.B : u ,.& .X- =._ *.>.t - % z &.O u 8 _.> $ a : ) 8 x B O % '.} > t % s.x 8.M w 9 )  .w ; q Z ) o.B : u ,.& .X-  .C.",
"~.p.:.$ y 3 a H e t 0 % u.^ r.x !.{.x .., 7 _ W m 3 V X 3 u.x ].3 4.;.S.- ..b y.> O z.7 =. .7 s w.~.p.:.$ y 3 a H e t 0 % u.M j.",
": ' 7 y }.M 0 - 7 > q 3 , O - $ k O w.T._ : 7 = p.;.].@.x &.X < ~ q X d &.n o.1.I.^ * q c 3 M A 4 : ' 7 y }.M 0 - 7 > q 3 , O O ",
"T.- 0.0 , 3 a.C F ^ W.Z.E.) X } q t ,.7 o.G r.=.$ < o r.$ d 3 3.y 7.) % ; c * 2 o 6.: $ ~.q N x.c ^.- 0.0 , 3 a.C F ^ W.Z.E.) { ",
"$ G &.H.M 7 X 4.e.- * h.=.3 ~.o.Z.y r Z : E o ! ^ @.- % 7 L.M x $ E 3.U.*._ Z.C z i./ A t B t :.) : G &.H.M 7 X 4.e.- * h.=.: n.",
"R.#.O x.r.K.: 3 a.#.: q a M ) @ $ <.) C.: e.$ d # - { <.*.B 3 $ _ C $.7 G q 4.x X $ 8 7 X 4 - O a >.#.O x.r.K.: 3 a.#.: q a C v ",
"X s _ # 3 b.w : + O / 7 ) N Z y.,.) - W ) ~ o.@. .] O q - > x . Q - $ _ 4 z 4 $ $.$.3 !.z W.& v >.O s _ # 3 b.w : + O / 7 ) v M ",
"[ 8 0 w H $ L ~.#.x > , e 3 q.> b # A :.4 > ] w <.u./ 3 e F !.' x : % g.x ) C o % P 3 9 O % } 7 - ] 8 0 w H $ L ~.#.x > , e 8 A ",
"t ) 7 ) o.O y % 4.{ o.~ 3 o.$ z 1.] N O u - $ $ L t | K. .; Y $ t.&.C.4 u.0.j.C J..Xw M 7 { h.q #.t ) 7 ) o.O y % 4.{ o.~ 3 7.: ",
"`.F.N 7 t y.H X < - $ 3 t 3 Z.c 0 A { P.=.,.U.=.y H o.M o._ Z O 7 - 6.3 x O % - 3 % ! 8 : q t :.; '.F.N 7 t y.H X < - $ 3 t 3 E.",
"3 O i.o 3 C A #.W.Z.Z U.o.M - d ,./ ] 0 : > u t T.& 3 $ - - ' : 8 C H , 9 x N W.I.  B.'.@.G ^ q _ 3 O i.o 3 C A #.W.Z.Z U.o.C % ",
"U.C H y N D ] $ 6.% c E ) & L.Q.H - - - i.e.6.. L R.F.*./ 3 d *.B $ s s.H.XX> , z.' x . P 7 x > c ,.C H y N D ] $ 6.% c E ) & B ",
"% . g ;.M $ E % G % } % D 0 7.& z >.;.3 e 7 B =.$ $ A E.H w 0 3 ' ) H x & $ z 3 $ 4 8 N ( ^ { y.O % . g ;.M $ E % G % } % D 0 t.",
">..X0 3 } w i._ y.Z.$ 0.$ 4.N P.% o g.Z 8.! G L.' 3 - 7 - 3.a.% O E   >  .S.#.H.> :.@.y h.t.#.N E.Z..X0 3 } w i._ y.Z.$ 0.$ 6.A ",
"v t A Z $ $ : 0 t } c m ^ 8 H w.>.^ q 8.b n - y S _.n q 3 D - _ G.+.@.v - o t <.E.z q z O % x r , 0 t A Z $ $ : 0 t } c m ^ 8 y.",
"9.M N i.F.+.7 ; - % % $ W 6 t x : X > y > Z z S 7 c 7 T.e ^.{ O 1 $ 9 :.K.! N $ 8 : $ 9.P.X R G o 6.M N i.F.+.7 ; - % % $ W 3 9 ",
"$ O y 8.F z.q N i.C ^ q - v.:.E./.$.&.C s.0 ) z 7 a.0 ; & q._.c i.C G o.' O 6., ) M +.^ L ; T i.$ & O y 8.F z.q N i.C ^ q - v.t.",
"G y D.Z ^ : d.c 3 : M M 3 A G o < > 7 N u Z ( 0 o , M J.0 , $ 3 & N H q H o.w !.M O O h.O.w a & x.0 y D.Z ^ : d.c 3 : M M 3 A _ ",
"E.. 3 n *.s ; D./ 0 d : 3 8.z V #.7 G 6 a.s.8 y.O.C O $ 8 r.W.*.: c.8 O h.X w $ } L.&.G - !.) [ G Y.. 3 n *.s ; D./ 0 d : 3 7.c ",
"i a.] 8.,.;.} { _ G C.@.z c u.E./ F r./ > & o.3 ^ i.) $.y o , y Z ; B . 4.3 s Z 0 C % ; ! & { v $ > a.] 8.,.;.} { _ G C.@.z Z 6.",
"=.3 l C o D r.X c ; > h.8.t c O s / G K Q.G >.- i t : i C z ] V {  .).x , 6.^ >.O Z &.$ ; = 3 B / ] 3 l C o D r.X c ; > h.8.t 3 ",
"! 3 > L c x : / & 3.{ v Z u 8 r.o.$ y O D $ , C  .$ l.0.G % d ^  .o T U.z 7 m O i.. Z %.A.&.7./ q z 3 > L c x : / & 3.{ v Z u s ",
"4 =.} N q 3 :.y N { =.N ^. .l & &.7 q.3 j l ; s :.; e l +.>.7 $ 8.Z - o p % L.&.x ) $ $ h {.{ H } t =.} N q 3 :.y N { =.N ^.=.M ",
"x.- 5.0  X' r !.} c , 6.$ ~.,.7 h } &.Z.& d.%.q y 3 O 2 % 6.#.0 - F D..X: =.7 G w.I.0 v O 3 % w - c.- 5.0  X' r !.} c , 6.$ ~.I.",
"3 - 6 9 O P 0 $ w.6 q y M i $ m c F O q U.. P <.; >.A.7 ) X & 8 / X % H 8 q C M y 7 ].F.3 6 N ! % : - 6 9 O P 0 $ w.6 q y M 8 - ",
"#.Z.=.) E.3 :.O.* S #.=.6.1.^ 5.] z.=.D.7 d.C.c 8.h o $ - ) U._ { S.x E G o.. c c $ 7 - x M.q ].) ) Z.=.) E.3 :.O.* S #.=.6.8.:.",
". 4 ) O x.3 $ 7 s._ o N - O ; % 8.[ x c x , , * - +.O.V.&.$ : : u 0.o o.o M % a e.% x 3 : 2.C x x # 4 ) O x.3 $ 7 s._ o N - O 8 ",
"C.H.o.7.8 3.Y.O $ E.-.@.y q H :.w & O 8 J { .X) ] - $ i M.N v o.N 4 H.7 o.7 H } b >.j.[ X % O d 6.+.H.o.7.8 3.Y.O $ E.-.@.y q e ",
"> t i.~ O 7 4.) { o 7 S b O.c 8 y i.&.q } X x.; 0 a x M C O : t 0 O H O.O o.O l x $ q _ +.=.A.u O < t i.~ O 7 4.) { o 7 S b +.[ ",
"Z 7 ; - o.[ ! q - o j.=.o , 3 p.u._ , r > G $ - f.w % f } 4 [ : N c % W C.t 8 : !.Z.' ; 0 8 - ^ >.N 7 ; - o.[ ! q - o j.=.o , { ",
"S Z x.>.^ o & v.+.o $ m.C.=.M #.0 h ; l.C.M O.^ ; L Z.N % M 0 $ x x : 1 A U.0 7 $ $ - u.i.0 q Z 3 c Z x.>.^ o & v.+.o $ m.C.:.J ",
"/ $ 8.! :.0 =.5 H =.7 9 $ N ! - y !.3 3 - 3 G 3 _ q 4 8.o e.P.0 3 N ' o.3 L x &.e =.) c o.L.q { H.x $ 8.! :.0 =.5 H =.7 9 $ v ) "
};
