/* XPM */
static char *_683e1dfdd9045468bfeda28abf1227eOyLHJ8hUG4w8Js1E[] = {
/* columns rows colors chars-per-pixel */
"64 64 85 1 ",
"  c gray9",
". c #181818",
"X c #191919",
"o c gray10",
"O c #1B1B1B",
"+ c gray11",
"@ c #1D1D1D",
"# c #1E1E1E",
"$ c gray12",
"% c #202020",
"& c gray13",
"* c #222222",
"= c #232323",
"- c gray14",
"; c #252525",
": c gray15",
"> c #272727",
", c #282828",
"< c gray16",
"1 c #2A2A2A",
"2 c gray17",
"3 c #2C2C2C",
"4 c #2D2D2D",
"5 c gray18",
"6 c #2F2F2F",
"7 c gray19",
"8 c #313131",
"9 c #323232",
"0 c #353535",
"q c gray21",
"w c #373737",
"e c gray22",
"r c #393939",
"t c #3A3A3A",
"y c gray23",
"u c #3C3C3C",
"i c gray24",
"p c #3E3E3E",
"a c #3F3F3F",
"s c gray25",
"d c #414141",
"f c gray26",
"g c #434343",
"h c #444444",
"j c gray27",
"k c #464646",
"l c gray28",
"z c #484848",
"x c #494949",
"c c gray29",
"v c #4B4B4B",
"b c #4C4C4C",
"n c gray30",
"m c #4E4E4E",
"M c gray31",
"N c #515151",
"B c gray32",
"V c #535353",
"C c gray33",
"Z c #555555",
"A c #565656",
"S c gray34",
"D c #585858",
"F c gray35",
"G c #5A5A5A",
"H c #5B5B5B",
"J c #5D5D5D",
"K c #606060",
"L c gray38",
"P c gray39",
"I c #646464",
"U c #656565",
"Y c gray40",
"T c #676767",
"R c #686868",
"E c DimGray",
"W c #6A6A6A",
"Q c gray42",
"! c #6C6C6C",
"~ c #6F6F6F",
"^ c gray44",
"/ c #717171",
"( c #727272",
") c gray45",
"_ c gray46",
/* pixels */
".####.#..&#&####.#&#.####.&###.. .#####.##.####.&#&#.##.###..#..",
"#!((U!W_(UUUW((UUWU(UUUWUWW!!UU..!((U!W_(UUUW((UUWU(UUUWUWW!!UU.",
"#UvmPvPBDUZZPvZZUDmDDvZmJBDBvBr##UvmPvPBDUZZPvZZUDmDDvZmJBJBvBr#",
"#(mf9BfvruZv9B9uu009Zrr0j9Zfru4#.(mf9BfvruZv9B9uu009Zrr0j9Zfru4#",
"#(P9frv09muBvju009uPu09fZfm0Wf0.#(P9frv09muBvju009uPu09fZfm0Wf0.",
"#Uvr9D9fvmuDjZf9mfrf0ZufjZffu,0#.Uvr9D9fvmuDjZf9mfrf0ZuffZffu,0#",
"#W090fjr04j9rj0u0r4jur0fr,,u499#&W090fjr04j9rj0r0r4jur0fr,,u499#",
".4-u,-440,-,9,,9--,4,494,,,--4-..4-u,-440,-,9,,9--,4,494,,,--4-#",
"&#,--&#,,-&-,-&&&&---&,-,&,#,--###4,&,--&-,#--&&#&-,-,&#----,,#&",
"UWU(UUUWUWW!!UU..!((U!W_(UUUW((UUWU(UUUWUWW!!UU##!((U!W_(UUUW((U",
"UDmDDvZmJBDBvBr#.UvmPvPBDUZZPvZZUDmDDvZmJBDBvBr..UvmPvPBDUZZPvZZ",
"u009Zrr0j9Zfru4.&(mf9BfvruZv9B9uu009Zrr0j9Zfru4##(mf9BfvruZv9B9u",
"09uPu09fZfm0Wf0.&(P9frv09muBvju009uPu09fZfm0Wf0##(P9frv09muBvju0",
"mfrf0ZuffZffu,0&.Uvr9D9fvmuDjZf9mfrf0ZuffZffu,0.#Uvr9D9fvmuDjZf9",
"0r4jur0fr,,u499##W090fjr04j9rj0r0r4jur0fr,,u499..W090fjr04j9rj0r",
"--,4,494,,,--9-#.4-u,-440,-,9,,9--,4,494,,,--4-.#4-u,-440,-,9,,9",
"#---&,-&---&-&#-&&,&&-,-,,&--,&&##&,,,,----&&,#&&,#&#&&&--&&--&&",
".!((U!W_(UUUW((UUWU(UUUWUWW!!UU..!((U!W_(UUUW((UUWU(UUUWUWW!!UU#",
"&UvmPvPBDUZZPvZZUDmDDvZmJBDBvBr.&UvmPvPBDUZZPvZZUDmDDvZmJBDBvBr#",
"&(mf9BfvruZv9B9uu009Zrr0j9Zfru4##(mf9BfvruZv9B9uu009Zrr0j9Zfru4#",
"#(P9frv09muBvju009uPu09fZfm0Wj0##(P9frv09muBvju009uPu09fZfm0Wf0.",
"#Uvr9D9fvmuDjZf9mfrf0ZufjZffu,0#.Uvr9D9fvmuDjZf9mfrfrZuffZffu,0#",
"&W090fjr04j9rj0r0r4jur0fr,,u499#.W090fjr04j9rj0r0r4jur0fr,,u499#",
".4-u,-440,-,9,,9--,4,494,,,--4-.#4-u,-440,-,9,,9--,4,494,,,--4-#",
"&#,&-&-,--,&&&&-#&---&--&&---#&&#&,&#&&-,-#&&&&&#--#&&,--4&&,&#&",
"UWU(UUUWUWW!!UU.#!((U!W_(UUUW((UUWU(UUUWUWW!!UU..!((U!W_(UUUW((U",
"UDmDDmZmJBDBvBr##UvmPvPBDUZZPvZZUDmDDvZmJBDBvBr#.UvmPvPBDUZZPvZZ",
"u009Zrr0j9Zfru4##(mf9BfvruZv9B9uu009Zrr0j9Zfru4#&(mf9BfvruZv9B9u",
"09uPu09fZfm0Wf0&#(P9frv09muBvju009uPu09fZfm0Wf0&.(P9frv09muBvju0",
"mfrf0ZuffZffu,0#.Uvr9D9fvmuDjZf9mfrf0ZuffZffu,0&#Uvr9D9fvmuDjZf9",
"0r4jur0fr4,u499..W090fjr04j9rj0r0r4jur0fr,,u499##W090fjr04j9rj0r",
"--,4,494,,,--4-##4-u,-440,-,9,,9--,4,494,,,--4-&.4-u,-440,-,9,49",
"#-#,--&-&-,&&#&###-&&,&-&&&-,&-###&#-,-#--&-4-,&###,,#&&&,--&&-#",
"#!((U!W_(UUUW((UUWU(UUUWUWW!!UU#.!((U!W_(UUUW((UUWU(UUUWUWW!!UU#",
".UvmPvPBDUZZPvZZUDmDDvZmJBDBvBr..UvmPvPBDUZZPvZZUDmDDvZmJBDBvBr.",
"#(mf9BfvruZv9B9uu009Zrr0j9Zfru4..(mf9BfvruZv9B9uu009Zrr0j9Zfru4#",
"#(P9frv09muBvju009uPu09fZfm0Wf0.#(P9frv09muBvju009uPu09fZfm0Wf0#",
"#Uvr9D9fvmuDjZf9mfrf0ZuffZffu,0.#Uvr9D9fvmuDjZf9mfrf0ZuffZffu,0.",
"&W090fjr04j9rj0r0r4jur0fr,,u499##W090fjr04j9rj0r0r4jur0fr,,u499.",
".4-u,-440,-,9,,9--,4,494,,,--9-..4-u,-440,-,9,,9--,4,494,,,--9-#",
"#&#,-&#,-,,#&&&####-&&-&-&,-&,###-##-&&&-&&,-,&#-#,-,-,-&-#,##&#",
"UWU(UUUWUWW!!UU..!((U!W_(UUUW((UUWU(UUUWUWW!!UU#.!((U!W_(UUUW((U",
"UDmDDvZmJBDBvBr##UvmPvPBDUZZPvZZUDmDDvZmJBDBvBr#.UvmPvPBDUZZPvZZ",
"u009Zrr0j9Zfru4..(mf9BfvruZv9B9uu009Zrr0j9Zfru4&.(mf9BfvruZv9B9u",
"09uPu09fZfm0Wf0..(P9frv09muBvju009uPu09fZfm0Wf0&#(P9frv09muBvju0",
"mfrf0ZuffZffu,0&#Uvr9D9fvmuDjZf9mfrf0ZufjZffu,0#.Uvr9D9fvmuDjZf9",
"0r4jur0fr,,u499.#W090fjr04j9rj0r0r4jur0fr,,u499##W090fjr04j9rj0r",
"--,4,494,,,--9-.#4-u,-440,-,9,,9--,4,494,,,--4-##4-u,-440,-,94,9",
"####&,#&-&4-#&,##---#--&,4-,-#&&-#&-#,###&&#&-#-##--4###,,-,---#",
".!((U!W_(UUUW((UUWU(UUUWUWW!!UU.#!((U!W_(UUUW((UUWU(UUUWUWW!!UU.",
"&UvmPvPBDUZZPvZZUDmDDvZmJBJBvBr##UvmPvPBDUZZPvZZUDmDDvZmJBJBvBr.",
".(mf9BfvruZv9B9uu009Zrr0j9Zfru4#&(mf9BfvruZv9B9uu009Zrr0j9Zfru4.",
"#(P9frv09muBvju009uPu09fZfm0Wf0#&(P9frv09muBvju009uPu09fZfm0Wf0#",
".Uvr9D9fvmuDjZf9mfrf0ZuffZffu,0&.Uvr9D9fvmuDjZf9mfrf0ZuffZffu,0#",
"#W090fjr04j9rj0u0r4jur0fr,,u499&.W090fjr04j9rj0r0r4jur0fr,,u499&",
".4-u,-440,-,9,,9--,4,494,,,--4-..4-u,-440,-,9,49--,4,494,,,--4-.",
"#&-#,,,&--&#-4-#-&--,,&-&,#&,4-#&##-##-&-&&4#-&##---,--&#,&&,-#&",
"UWU(UUUWUWW!!UU#.!((U!W_(UUUW((UUWU(UUUWUWW!!UU#.!((U!W_(UUUW((U",
"UDmDDvZmJBDBvBr&#UvmPvPBDUZZPvZZUDmDDvZmJBDBvBr.#UvmPvPBDUZZPvZZ",
"u009Zrr0j9Zfru4..(mf9BfvruZv9B9uu009Zrr0j9Zfru4##(mf9BfvruZv9B9u",
"09uPu09fZfm0Wf0..(P9frv09muBvju009uPu09fZfm0Wf0#.(P9frv09muBvju0",
"mfrf0ZuffZffu,0##Uvr9D9fvmuDjZf9mfrf0ZuffZffu,0..Uvr9D9fvmuDjZf9",
"0r4jur0fr,,u499&&W090fjr04j9rj0r0r4jur0fr,,u499&&W090fjr04j9rj0r",
"--,4,494,,,--9-..4-u,-440,-,9,,9--,4,494,,,--9-.#4-u,-440,-,9,,9"
};
