/* XPM */
static char *_d88140fc4cb42c0a319d65d1d9fe958D3qiPP7pD3LTwaBu[] = {
/* columns rows colors chars-per-pixel */
"64 64 118 2 ",
"   c #7E7978",
".  c #7B7D7A",
"X  c #807B7A",
"o  c #817C7B",
"O  c #837E7D",
"+  c #7F817E",
"@  c #80827F",
"#  c #7A7F82",
"$  c #807E82",
"%  c #7B8083",
"&  c #7C8184",
"*  c #7F8487",
"=  c #818380",
"-  c #878281",
";  c #828481",
":  c #848683",
">  c #838185",
",  c #858387",
"<  c #858784",
"1  c #888382",
"2  c #898483",
"3  c #8B8685",
"4  c #8C8786",
"5  c #878986",
"6  c #888A87",
"7  c #8D8C84",
"8  c #82878A",
"9  c #878589",
"0  c #88868A",
"q  c #83888B",
"w  c #848D88",
"e  c #868B8E",
"r  c #878C8F",
"t  c #898B88",
"y  c #8A8C89",
"u  c #8C8E8B",
"i  c #8B898D",
"p  c #8C8A8E",
"a  c #8D8F8C",
"s  c #908A89",
"d  c #928C8B",
"f  c #938D8C",
"g  c #8F918E",
"h  c #93928A",
"j  c #90928F",
"k  c #96918F",
"l  c #98978F",
"z  c #888D90",
"x  c #8E8C90",
"c  c #918F93",
"v  c #978E94",
"b  c #8C9093",
"n  c #8E9792",
"m  c #8E9295",
"M  c #919390",
"N  c #979290",
"B  c #929491",
"V  c #949693",
"C  c #939195",
"Z  c #959397",
"A  c #909497",
"S  c #959794",
"D  c #989391",
"F  c #999492",
"G  c #9B9694",
"H  c #9C9795",
"J  c #909994",
"K  c #969895",
"L  c #9D9896",
"P  c #919698",
"I  c #969498",
"U  c #98969A",
"Y  c #93989A",
"T  c #94999B",
"R  c #959E99",
"E  c #969B9D",
"W  c #979C9E",
"Q  c #9A9B98",
"!  c #9C9E9B",
"~  c #9B999D",
"^  c #9D9B9F",
"/  c #989D9F",
"(  c #9D9F9C",
")  c #A09F97",
"_  c #A09B9A",
"`  c #A19C9B",
"'  c #A39E9D",
"]  c #A49F9E",
"[  c #9AA39F",
"{  c #9FA19E",
"}  c #A0A29F",
"|  c #A5A09F",
" . c #9A9FA1",
".. c #9E9CA0",
"X. c #9C9CA6",
"o. c #A19EA2",
"O. c #9BA0A2",
"+. c #9CA1A3",
"@. c #9EA3A5",
"#. c #9FA4A6",
"$. c #A1A3A0",
"%. c #A7A2A1",
"&. c #A2A4A1",
"*. c #A4A6A3",
"=. c #A3A0A4",
"-. c #A5A7A4",
";. c #ABA5A4",
":. c #ACA6A5",
">. c #A0AAA5",
",. c #A6A8A5",
"<. c #A8AAA7",
"1. c #AEA8A7",
"2. c #A6A3A8",
"3. c #A2A7AA",
"4. c #A7A4A9",
"5. c #A9A7AB",
"6. c #A3A8AB",
"7. c #A4A9AC",
/* pixels */
"u Z k c j c c M B b m j g j Z C C M g B I M B M k k C N M m N 8 & C c C g M B M j N I M C C j j j k j C m j k f D Z M B B V V u ",
"g 3.=.@.` Q +.@.=.#.-.,.-.*.;.=.&.,.*.=.&.-.,.3.;.2.5.;.;.-.<.t t -.$.2.3.,.;.=.$.&.#.} ..o.} o.;.;.4.#.$.{ %.} ]  ._ { @.&.<.B ",
"M 3.=.{  .E ( { ^ { $.$.( O.o.| ' *.=.$.( Q ' =.o.+.-.*.%.=.,.4 0 &.{ { { $.} ] } } { ( K ! Q G ! Q ..B Q Q ( ( Q H ' Q Z ` ;.B ",
"j =.] ^ T Z V ^ K M Q _ S K V W L U ~ K M B } { +.$.#.#.{ { 5.i 0 ' I Q ! K $.Q Q ^ ( Q Q P C H K V Z j Q ( S F S H L G k K ] m ",
"g &.} L p j 6 i k j K K Q I M S Q C x y m i s H o.&.&.| o.' &.p p Q ~ L { Q ( ( ..k M F K m Z Q z u Y U ~ ~ Q Q K K S M B U U d ",
"j { ~ P ..{ 5 5 N G =.o.S m P P Q B 5 t y d u ^ ' ` { ' o.{ | y t ' ~ | } ( d x ^ Z I Y O.B f , g B j Q Q U ^ K K E C U Q G { g ",
"j o.L k I V y c g U L K Q P b C f b y D C m e P K ^ L _ ^ ' -.4 s =.` ~ K Q Y E L V P T { c X . B Z A y j P E / g M 2 U Q j ( g ",
"M &.{ B 8 m S u i F p 6 B b 6 S j g y 5 i z g K G { ' o.X.%.;.s y ' F V V ( { ^ { Q Q S g k , = 0 O 6 k s z Z I B B y D B B ~ M ",
"B &.$.B < c 6 e K a % ; 5 ; a a F Q W 8 e b B L L Q G ^ o.( &.s 4 ( K Q L L ~ Z M V } Q x g f p x 0 u B B m z I =.H f Q { B K C ",
"M #.L k Q V B y Q B = 0 s o = I _ L ~ k y S K S K ! V M ~ B ! i i &.Q Q m s Z V D L L o.Z r 6 y j x * 6 B q y L E U Z G Q B K g ",
"g } Q K E B S M K Q p 0 = 9 y j o.I K B M V g m U K g r G S { 6 i 3./ K P Z G L L L L Q I c ; a M m 8 & i i s x F Q B y j x ^ u ",
"C } ^ I F B m V Q G f u 8 8 C V ^ ! $.H ~ ! C K ! } z 0 S V | a a 2.H j c 6 S K S U U V f D L { o.~ s 9 & 5 i p a L Z I B P o.k ",
"B &.=.E B k p f S %._ S j x Z ^ ^ U ~ ` L Q I ^ ( { 5 s ` H k < y *.M M ~ Q U E Q ' W S B B K { E F ~ Z u e y g j m Z Z z P o.g ",
"k 3.O.Q U F f F L &.} F j d B { L U ~ E I V k ( { I 5 L ^ L Q : 4 &.U s b K K T _ Q m ^ $.( S Q S k c B B 6 d x m m K K f F ' f ",
"k &.{ G Y K I Q K ( ..C k y U M K K L F H L g ( ! W U m V $.>.6 9 ..L A p C ~ { Q Q K B B Q g m a f S B y y D g y g B 6 a K { C ",
"g $.[ ! T a C C B U U S j 5 U P D f P G Q _ &.K C p C m B } *.e i ^ S V g 5 y / Q K M B g j t a a V U m U B Q g S B y 4 d U o.x ",
"g &.} ` I ~ Z S V x p b K a Z C k j b b B ^ / Q Z d H F h ! &.a c o.E Q C x 9 b V Q Q B F Q V s g C G f Q ! Q U Y j j C N U @.c ",
"c 2.( E T ^ U S K Z j C U N B E 3 y x B Q a ^ o.=.` H s B ..o.j k &.! Q U C C W E V Q ( ~ O.Q s B 8 I o.{ } ' U U Q K B N L ..g ",
"Z ;._ Q Q K L D k C ~ P Z I Q ^ x F I ^ K t o.o.Q S M < Z _ =.g a &.{ ^ u 5 G Q ! Q ( Q Y ~ } { I s M U ! ! ` c Q Q B Q Q ~ @.b ",
"M #.^ T L L K C ~ V P B U I K } o.~ D U C B ~ B a m V H c S ;.a g +. .Q G d ~ S ! ' Q B M Q L ~ G Q V Z D ' ! U !  .B P  .Q &.j ",
"c } ' Q K K Q K ~ / F K T E Q } &.} { W b a K C s B U j B o.2.r t @.^ ^ _ B ~ Z a F m z P Q ( ~ S K E P I K V I m  .K G ..} &.j ",
"m } E Q ~ ^ ( *.{ ~ k j C T ` ! %.3.+.C 5 F I m G _ $.{ O.} } 4 4 &.o.f z ! V H K L Z g Z ^ ^ Z M S K y B K ! Q Q L ~ ! Q Q -.M ",
"m 3.b L ` Q ! $.| ( W L E T E ! o.( L P Q F p i U ' ! $.| &.&.0 s *.' Z b Q S F Q S j C c o.{ G K M B g B G ~ M } Q D E U ~ $.c ",
"M =.U { Q Q ! L S Q O.o.Q B m E Z F B Y a k D s j { ^ S ! &.;.i x *.! E B / Y k Q V C o.' M K L L g M g 0 C U 9 / Q j s N ^ ] g ",
"j } ! K E ! !  .Q K L { ( ( V j B I G L p m  .A u B ~ I S $.&.t a -.o.~ G G ~ L ~ I M T P T +.o.! Q D z C I M u ` { S g C ~ =.j ",
"a { } Q U L Q K V F H Q K ! V V K g G U z z V g A K S / E ' { t g *.o.~ ~ ~ L k d M M c & 5 V Q Q N 5 ; t j g K 7 V ( M r ~ =.N ",
"j { ' Q Q ( Q S I K O.U B B C U y s k V z x B a B A B  .W ! / 3 s 3.U z m c a b F ! M f x p u b U ^ s t ; 5 k / j x C L _ ~ { B ",
"g #.' { L ..Q ! ..E I I T ^ K U P M u V I k P T K C e I U T Q 4 p =.o.! V P c C Q V u a j V I g Q  .k V g m Z T P g B V V ! %.B ",
"c } ] &.%.} { ' K K I B g Z Q ~ S S K Q U U Q S Q C I Q I ^ O.e y { ^ K Q V U K K j b g : x c m ~ F P K B B ~ ~ W Q Q ! H ` } M ",
"g { L $.$.{ $...o.&.` Q ! ~ ^ Q Q L ( G T ! $./ o.~ Q ( Q { +.8 t -.+.^ ( B K Q g 8 Z ~ p ~ G S Q L  .Q ! V K ' ..( U K =.^ { m ",
"B ,.' { &.%.2.] =.6.&.2.;.$.=.&.&.%.$.O.^ -.,.%.] =.' { Q $.%.i a 7.&.=.{ } ^ S M H | 2. .} { } Q Q %.G Q { +.$.&.=.=.' 5.*.,.Z ",
"@ y 9 , < 5 0 5 e z 5 t e 3 0 i e 6 6 e 8 6 5 5 0 i i 6 5 i u = $ e 5 t 6 p a 6 2 4 i e e y y y t 5 i > 2 5 e t 6 i x d y y y ; ",
"- 2 , 8 i p 5 < y x p 6 s 3 6 s e t 5 4 t s e t y s p y 9 9 y #   t 5 5 5 y a 0 1 2 5 e 0 5 u u t * r p 9 1 3 5 6 s e a u e y - ",
"m {  .=.*.3.*.{ &.3.6.-.-.,.4.;.&.%.&.3.,.-.%.-.,.,.-.,.=.=.:.6 s :.-.*.*.-.&.{ } { Q Q ^  .;.;.=...o.*.-.&.} o.} { B E / -.1.Z ",
"g ( ^ | Q ~ ~ { O.$.} &.&.=.o.L T U { &.$.O.^ ' =.&.&.=.;.$.&.y 6 | =.( L N K } $.Q B V k Y E W ..U I G } ! ( K Q B B c f  .&.m ",
"j Q B ! K '  .~  .V Q | H U ^ F H ~ L Q ! $.S Q $.{ {  .%.=.-.0 9 o.o.K g Z E ^ ` { Q K 5 ; Z o.{ K }  .! ~ E B Q Q B N c j { g ",
"M H Q Q _ ..O.Q m F G ( K B Q ^ { { ~ H K Q K Q Q ! ^ _ &.%.%.3 6 @...Y B B V m Q A j ! V y x v G o.=.{ W V V B Q Q x Z m N { g ",
"M ..L P U U ~ _ c C C ` { g Q ^ L L o.` Q ! $.Q m ^ E { =.$.@.3 s &.K C g y d E I p M F K K m I K o._ Z P 6 g M B i p B Z I ! j ",
"d { ~ ^ ~ A Z L ! y 0 g S N Q U L ` { Q +. .Q F U W i B T ( &.5 4 -.{ K B A c H L G h a f s p  .} T B k c U E B m 0 5 f I E &.M ",
"a } o...^ V j Z { j g j B ! / j Z ..o...$.o.K ! { ! 6 y P A { 0 i ,.&._ B Z g 6 K { F M p D j L Q V B S < g L L Y T M g c I ^ B ",
"B { O.@.=.{ g C ` ~ ~ U { Q F K T ` %.' +. ._ &.O.B d K M Z ^ < s *.{ B Y B m z B } ~ m P S Q ! K j K L g M D ..Y K M K D C ' M ",
"a K Q ' L I Q o.W ~ m F U Q Z S K ~ ' ` ( { ^ { ! j G F T ~ +.5 5 $.! A A K U S ! } ] ^ E c a M I _ B Z C S b Q Q B B F B K } b ",
"B ( Q L ~ U Z ~ m B Q K g B E ^ Q ~ { $.$.{ O.{ &.S S H Q ~ ^ 5 t O.( E g B ..^ L Q o.Q j x g m W Q p p L C d V G _ K f B P Q b ",
"m K a _ ^ T M Z 6 y b a g K O. .o.^ &.( o.! o.&.-.L B Q ! L L e t $.' { S B Q Q W / O.Q B m ^ ! K K V 0 Z C s G C ` K U C D Q u ",
"b B V L k > ^ Z g N c j K L ] } o.` } L ' o.{ &.$.Q T K Q ( { z s *.{ &.$.Q ( { Q W E L I ' ..Q Q S F I m j s m Q L K L C P Q a ",
"g K Q E 5 + o.~ V Z D Q Q U $.} { { &.;.&.=.' +.} { Q K L ~ @.x s -.=.=.} Q ! ! Q T N S K ^ o.E Y K W U s B ~ L ' A B _ Q ~ W d ",
"y _ I i t M E Y D C m ^ Z H ] { ( ! @.$.{ o.o.&.&.{ ! {  .+.3.y u ;.=.o.U d Y Q L B K L ^ E &.Q P Q U G M ! E K ( P y m j k ~ k ",
"y K ^ g m O.E b x e Q B Q ! $.=.o.^ ~ ( } =.#.{ Q Q T ..=.4.,.t y 3.} Q I s F { L k K S _ / o.=.O.V F L L G z K { I B S B S @.F ",
"m =.{ a y Q E K ^ ^ ! ( $.&.-.2.( { / U ] =.^ S j M { ( _ ] ,.6 5 { P U N B Q $.U P K S Z m U +. .a g V Q V M K $.N t n K U 3.B ",
"c =.=.~ S S ` %.;.&.Q ! ' | ^  .j u B o.Q / o.( A ^ Q V M Q =.6 s $.B G Q K Q / ^ K K Z c u F E m g ^ ! Q a U U m d c M k o.-.M ",
"j ;.$.V u Y W &.*.@.W { Q ! F ^ C s M Z K S U ^ K ~ c M B { #.5 s ) Q j M S S K ! G k 5 K ( V m k o.=.@.K A ^ C i B H U B Q &.B ",
"C -.O.K S I Q &.] ^ U { D M V _ ..I c k ~ Q L { P p c 6 ~ ..^ 8 i { S C K Q S { o.{ U S  .~ S C L L ! ( C Q K c a J B 5 < / 3.m ",
"k 5.{ ~ H B B ( ~ o.] Q B Z K Q Q c Z U _ &. .{ ^ y B k  .Q Q q 0 Q k C I S Z L P M W / I V j K ~ U K { K L I P P K B > x _ &.b ",
"C 2.~ ~ H K B Q W / B D g I } Q K M E U ~ %.=.{ ^ C F L S Q { t 5 Q B Q 2.` Z S F M H P a D B S m S ^ { S M Q Q Z C Z t k I ( g ",
"j ( E +.S B ! K V B x ~ O.~ / ! z U  .K ! { { Q S F B F K { +.5 y _ Q I f V u B Q m B K V Z k I M M ! ! I M T ^ H B m g U ~ o.x ",
"C } Q Y g K F I I Q K +.} } =.L C ^ ( { o.' K V L I y a m ! -.t w +.E U j u K F B g P U Q U C K E I ~ I { Q A U B F S D o.` @.a ",
"C &.{ / S Q G E I d U E K V { L { { G L U ' K K ! U I g K $.,.u e =...U S g Q C Z j F ~ ^ ^ m R ~ A Q ^ ( &.Q ~ W ` } B L B G s ",
"j Q  .&.} Q { o.^ 9 Z Q B B ^ E K { =.| Q Q P m M L K B { }  .y y ;.o.L =.P K y S { { Q L I s V Q P B K E &.{ U Q { } Q y t K B ",
"j ! Q Q L L C F K s k ~ U c Z K K Q &.o...! V r c B y B { Q $.i i =...m c Z a N j *.Q ( Q f Z B m ~ K g a g j _ ^ ~ Z y a M ( B ",
"a $.E B V ' B m ~ B Q _ c L { O.{ ( &.=.o.^ Q V j y c B } ^ *.0 q o.^ C c g y V B Q S Z ^ U B  .E Z K B K B x M ~ K B f ~ Z W M ",
"M $.^ { ! I H _ o.` ^ ^ Q &.&.o.E Q | =.] ! S Q Q S ! K { W *.3 3 ' U K j c r y c V Q Q F S l f K L Q ~ K K K g g { { Q M ^  .g ",
"M &. .K ! Q _ { _ ~ U ` Q ( $.o.U Q $.} ( ( ~ Q Q { $.{ ! =.*.5 4 } W ~ ( ~ P M ^ U K B L K M i I Q { P V V P j g K Q Q F ~ Q D ",
"b -.*.{ { Q B ! o.o.] | ] ^ ' =.o.@.&.&.} { } } &.-.3.*.&.-.-.t i ;._ Z  .o.#.Q ! | o.! B U G M ..Q }  .^ ! E Q Q ! !  .o./ =.f ",
"t C N j m u u g C Z k c c z u c b C k M g b a x g m m B M B M - > B g y z g B g f B j B < p C p d f g M g t j a k k a f j M B e "
};
