/* XPM */
static char *ae1fac3868594103f9c24f30bef0c8153EgPNjLuisthp736[] = {
/* columns rows colors chars-per-pixel */
"64 64 19 1 ",
"  c None",
". c black",
"X c #502E16",
"o c #402C22",
"O c #523A23",
"+ c #70411F",
"@ c #7C5C48",
"# c #8C5126",
"$ c #B37D56",
"% c #F58E2E",
"& c #B4915F",
"* c #D5824D",
"= c #DD996E",
"- c #FAD052",
"; c #422DE6",
": c #6F5EEC",
"> c #A9A9AD",
", c #A9AAAE",
"< c #E6B393",
/* pixels */
"                                                                ",
"                                                                ",
"                                                                ",
"                         ===     ===                            ",
"                       ==<**     *<<==                          ",
"                      ==<<*       *<<==                         ",
"                     ==<<**        *<<==                        ",
"                    ==<<**          *<<==                       ",
"                    =<<**           **<<==                      ",
"                   ==<<*             *<<<=                      ",
"                   ==<<*             *<<<=                      ",
"                   ==<<*             *<<<=                      ",
"                   ==<<****#######****<<==                      ",
"                   ===<<<O&&&&&&&&&O<<<<==                      ",
"                    ===<<OOO&&&&&OOO<====                       ",
"                     ====OO..&&&..OO#===                        ",
"                     ######..###..######                        ",
"                     --#####&&&&&#####--                        ",
"                     --####&&&&&&&####--                        ",
"                     -- ##&&+++++&&## --                        ",
"                        ##&&-+++-&&##                           ",
"                        +#&&-----&&#+                           ",
"                        +##&&&&&&&##+                           ",
"                   $$$$$$++#######++$$$$$                       ",
"                  $$####################$$$                     ",
"                  $#####$###########$#####$                     ",
"                  $#####$#####$#####$#####$                     ",
"                  $#####$#####$#####$#####$                     ",
"                  $$####$####$#$####$####$$                     ",
"                   $+###+XXXX###XXXX+###+$                      ",
"                  $$+###+###########+###+$$                     ",
"                 $$####++##%%%%%%%%#+#####$                     ",
"                $$$####+ #%%XX$$XX%%#++####$                    ",
"                $####+++ #%%$$XX$$%%# ++###$                    ",
"               $$###+++  %%%$$XX$$%%%  +####$$                  ",
"               $$###+    %%%$$$$$$%%%  +#####$                  ",
"               $####+    $$$$$$$$$$$$   +####$                  ",
"               $###++    XXX::::;;XXX    ++##$$                 ",
"               $###++    XXX::::;;XXX    ++###$                 ",
"               #######   $##::;:;;##$   #######                 ",
"               ######   $###::;:;;###$   ######                 ",
"               ######   $###::;:::###$   ######                 ",
"               ######   $###::;:::###$   ######                 ",
"               ++++++   $###::;:::###$   ++++++                 ",
"                        $###;;:;::###$                          ",
"                         $##;;:;::##$                           ",
"                         $##;;:;::##$                           ",
"                         $##;;:;::##@                           ",
"                      >>>XXXX>>>>XXXX>>>                        ",
"                    >>>>>XXXX>>>>XXXX>>>>>                      ",
"                   >>>>>>XXXX>>>>XXXX>>>>>>                     ",
"                  >>>>>>>XXXX>>>>XXXX>>>>>>>                    ",
"                 >>>>>>>>####>>>>####>>>>>>>>                   ",
"                 >>>>>>>######>>######>>>>>>>                   ",
"                 >>>>>>>######>>######>>>>>>>                   ",
"                 >>>>>>>oooooo>>oooooo>>>>>>>                   ",
"                  >>>>>>>>>>>>>>>>>>>>>>>>>>                    ",
"                   >>>>>>>>>>>>>>>>>>>>>>>>                     ",
"                    >>>>>>>>>>>>>>>>>>>>>>                      ",
"                      >>>>>>>>>>>>>>>>>>                        ",
"                         >>>>>>>>>>>>                           ",
"                                                                ",
"                                                                ",
"                                                                "
};
