/* XPM */
static char *c3333c0183d8490df36437de86beb9cfka87d1Dt0cJi1VHW[] = {
/* columns rows colors chars-per-pixel */
"64 64 252 2 ",
"   c #3D1E0D",
".  c #002700",
"X  c #002C00",
"o  c #0C2E04",
"O  c #1D2505",
"+  c #142C05",
"@  c #003200",
"#  c #0C3404",
"$  c #003900",
"%  c #073800",
"&  c #033C00",
"*  c #013E06",
"=  c #1F3702",
"-  c #143A03",
";  c #1A3802",
":  c #1B3B0D",
">  c #2E230A",
",  c #382607",
"<  c #382A05",
"1  c #3E250D",
"2  c #2A370D",
"3  c #2E350F",
"4  c #35300B",
"5  c #343708",
"6  c #3E3114",
"7  c #3D3717",
"8  c #393B16",
"9  c #421D07",
"0  c #441F0A",
"q  c #401C0D",
"w  c #402009",
"e  c #47210D",
"r  c #4A2309",
"t  c #4E220A",
"y  c #49270B",
"u  c #572309",
"i  c #54260A",
"p  c #51240E",
"a  c #5A260D",
"s  c #57290D",
"d  c #5A2B0F",
"f  c #403107",
"g  c #522A16",
"h  c #572E15",
"j  c #5F2A11",
"k  c #5D2F18",
"l  c #453613",
"z  c #4C3D14",
"x  c #43361A",
"c  c #4D311E",
"v  c #4F3B1A",
"b  c #4A381E",
"n  c #563211",
"m  c #503611",
"M  c #553719",
"N  c #56331D",
"B  c #52341C",
"V  c #55371F",
"C  c #5C3219",
"Z  c #602B0B",
"A  c #64280C",
"S  c #632D0D",
"D  c #6E2B0B",
"F  c #6C2F0C",
"G  c #6F310E",
"H  c #78330C",
"J  c #7F330F",
"K  c #652F10",
"L  c #692D10",
"P  c #633316",
"I  c #613617",
"U  c #6C3013",
"Y  c #63331C",
"T  c #683218",
"R  c #6B351B",
"E  c #623E1C",
"W  c #69381B",
"Q  c #693D1D",
"!  c #6E3C1F",
"~  c #753111",
"^  c #7D3710",
"/  c #723A19",
"(  c #713E1B",
")  c #7F3E1B",
"_  c #793A1D",
"`  c #793F1F",
"'  c #543221",
"]  c #503420",
"[  c #573921",
"{  c #5B3821",
"}  c #643920",
"|  c #633E22",
" . c #603B24",
".. c #633E27",
"X. c #6A3E24",
"o. c #6A3F2A",
"O. c #773F24",
"+. c #004100",
"@. c #054700",
"#. c #014706",
"$. c #094102",
"%. c #004B02",
"&. c #194408",
"*. c #134809",
"=. c #114F09",
"-. c #005603",
";. c #0C5301",
":. c #045108",
">. c #0B5D09",
",. c #1D5F0E",
"<. c #27440B",
"1. c #31450F",
"2. c #39440C",
"3. c #20520B",
"4. c #2F4C11",
"5. c #3D4E1C",
"6. c #295013",
"7. c #275A11",
"8. c #3D5E13",
"9. c #006104",
"0. c #006800",
"q. c #0D670B",
"w. c #156902",
"e. c #16630F",
"r. c #017401",
"t. c #0E700A",
"y. c #0C7A0A",
"u. c #186D13",
"i. c #1B741A",
"p. c #1E7C19",
"a. c #266C1A",
"s. c #227D22",
"d. c #404012",
"f. c #59431B",
"g. c #594818",
"h. c #425B1C",
"j. c #75421F",
"k. c #7A4019",
"l. c #524425",
"z. c #524B24",
"x. c #5D4328",
"c. c #674125",
"v. c #6D4127",
"b. c #66412A",
"n. c #6B4428",
"m. c #6E472A",
"M. c #69442C",
"N. c #744124",
"B. c #734626",
"V. c #7C4221",
"C. c #71442A",
"Z. c #73462C",
"A. c #774A2F",
"S. c #734C2F",
"D. c #784A2A",
"F. c #7D492B",
"G. c #7D4E2E",
"H. c #7C4F34",
"J. c #83360B",
"K. c #8E390A",
"L. c #923C0D",
"P. c #843713",
"I. c #893B10",
"U. c #8C3811",
"Y. c #8E3F14",
"T. c #963F11",
"R. c #923D15",
"E. c #84431F",
"W. c #8E461F",
"Q. c #8C491F",
"!. c #9A4314",
"~. c #98471D",
"^. c #A54613",
"/. c #A04217",
"(. c #AA4A17",
"). c #AF481A",
"_. c #824720",
"`. c #804524",
"'. c #894723",
"]. c #834827",
"[. c #884729",
"{. c #814C28",
"}. c #8F4C28",
"|. c #944A23",
" X c #914D23",
".X c #9D4C21",
"XX c #954C2A",
"oX c #85542E",
"OX c #89522E",
"+X c #975228",
"@X c #9B5028",
"#X c #815232",
"$X c #865132",
"%X c #845534",
"&X c #885731",
"*X c #8D5632",
"=X c #8E5739",
"-X c #8A5A39",
";X c #915935",
":X c #9C5D35",
">X c #965E39",
",X c #A15526",
"<X c #A95021",
"1X c #AF5526",
"2X c #A2562E",
"3X c #A85529",
"4X c #A75A2B",
"5X c #AD592D",
"6X c #B45621",
"7X c #BD5A27",
"8X c #B05C30",
"9X c #BC5F30",
"0X c #9A613C",
"qX c #B5602D",
"wX c #A16139",
"eX c #A7663D",
"rX c #A3693E",
"tX c #AD6A3C",
"yX c #B46B3F",
"uX c #C25D23",
"iX c #C95D27",
"pX c #C3642E",
"aX c #C26434",
"sX c #CC6633",
"dX c #C86832",
"fX c #D46C32",
"gX c #D06A36",
"hX c #D76F35",
"jX c #DC6D36",
"kX c #D46D39",
"lX c #DE7432",
"zX c #DA7137",
"xX c #E47335",
"cX c #E1713A",
"vX c #E87738",
"bX c #A36642",
"nX c #AC6B42",
"mX c #B06842",
"MX c #B06E45",
"NX c #B57243",
"BX c #B97546",
"VX c #BD794A",
"CX c #C17649",
"ZX c #0F8307",
"AX c #1D8619",
"SX c #179114",
"DX c #2A8014",
"FX c #ED8146",
"GX c #F48744",
"HX c #F98545",
"JX c #F18549",
"KX c #F7844B",
/* pixels */
"JXJXGXfX7XFXKXGXHXHXGXhX7XFXKXGXHXHXGXhX7XFXKXGXJXGXHXhX7XFXKXHXGXKXJXhX7XFXKXGXJXJXGXfX7XFXKXGXHXHXGXhX7XFXKXGXJXJXGXfX7XFXKXGX",
"BXCXBX,XT.tXVXBXCXCXVX,XT.tXVXBXCXCXVX,XT.yXVXCXCXCXCX,XT.tXCXCXVXBXBX,XT.yXCXBXBXCXBX,XT.tXVXBXCXCXVX,XT.yXCXBXBXCXBX,XT.tXVXBX",
"*X*X;X|.T.OX*X*X;X;X*X|.T.OX*X*X;X;X*X|.T.OX*X*X*X*X*XQ.T.OX*X*X*X*X*X|.T.OX*X;X*X*X;X|.T.OX*X*X;X;X*X|.T.OX*X;X*X*X;X|.T.OX*X*X",
"U F K ^ L.F L U K U L ^ L.F L U K U L ^ K.F F K K L K ^ L.F L L K F L H K.G L U U F K ^ L.F L U K U L ^ K.G L U U F K ^ L.F L U ",
"(.xXvXvXvXxXvXiX(.xXxXvXvXxXvXiX(.xXxXvXvXvXvXiX).xXvXvXvXxXxXiX).xXvXxXvXvXvXiX(.xXvXvXvXxXvXiX(.xXxXvXvXvXvXiX(.xXvXvXvXxXvXiX",
"T.yXCXBXBXBXBX@XT.tXVXCXBXBXBX@XT.tXVXCXBXCXBX,XT.mXCXCXVXCXVX@XT.tXVXBXBXBXVX,XT.yXCXBXBXBXBX@XT.tXVXCXBXBXVX,XT.yXCXBXBXBXBX@X",
"T.OX&XOXOX*X*XW.T.OXOX*XOX*X*XW.T.OXOX*XOXOXOXQ.L.OX&X*X*XOX%X'.R.OXoXOXOXOXoXQ.T.OX&XOXOX*X*XW.T.OXOX*XOXOXoXQ.T.OX&XOXOX*X*XW.",
"U.L S K K L S H K.L S K K L S H K.L S K K K S H K.K K K K K S H K.K S L K L S H U.L S K K L S H K.L S K K L S H U.L S K K L S H ",
"xXlXxX7X(.jXcXcXcXcXcXuX(.jXcXcXcXcXcXuX(.jXxXcXcXcXcXuX(.jXcXcXcXcXcXuX^.jXcXxXxXlXxX7X(.jXcXcXcXcXcXuX(.jXcXxXxXlXxX7X(.jXcXcX",
"NXNXNX@XR.eXBXBXNXNXBX@XR.eXBXBXNXNXBX@XL.tXBXNXBXCXBX,XL.eXBXBXBXBXBX@XL.tXBXBXNXNXNX@XR.eXBXBXNXNXBX@XL.tXBXBXNXNXNX@XR.eXBXBX",
"#X#X#XQ.R.{.#XOXOXOX#XE.R.{.#XOXOXOX#XE.Y.{.#X$X#X$X#XQ.U.F.OX#XOXoX#XE.Y.{.$XG.#X#X#XQ.R.{.#XOXOXOX#XE.Y.{.$XG.#X#X#XQ.R.{.#XOX",
"S S S ~ U.L S S S S Z H U.L S S S S Z H U.K S S S S S H U.L S S K S S H U.L S S S S S ~ U.L S S S S Z H U.L S S S S S ~ U.L S S ",
"^.fXzXhXzXhXzX7X^.fXhXhXzXhXzX7X^.fXhXhXzXzXzX7X^.fXzXzXzXzXhX7X^.fXzXzXzXhXzX7X^.fXzXhXzXhXzX7X^.fXhXhXzXhXzX7X^.fXzXhXzXhXzX7X",
"I.eXMXMXMXMXMX|.U.eXMXMXMXMXMX|.U.eXMXMXMXMXMX XI.wXMXMXMXMXMX+XY.eXMXMXnXMXMX+XI.eXMXMXMXMXMX|.U.eXMXMXMXMXMX+XI.eXMXMXMXMXMX|.",
"U.{.$X#X$XG.G.E.I.F.G.#X$XG.G.E.I.F.G.#X$X$XG.E.I.{.#XG.$X$X#XE.I.{.#X#X$X$X#XE.U.{.$X#X$XG.G.E.I.F.G.#X$X$X#XE.U.{.$X#X$XG.G.E.",
"J.S Z S j S Z ~ I.S Z S j S Z ~ I.S Z S S S j ~ J.S j Z S S j ~ U.S j S j S j ~ J.S Z S j S Z ~ I.S Z S S S j ~ J.S Z S j S Z ~ ",
"kXgXfX6X/.sXkXkXhXfXgX6X/.sXkXkXhXfXgX6X!.sXkXgXgXgXgX6X/.sXkXgXkXkXkX7X/.sXgXgXkXgXfX6X/.sXkXkXhXfXgX6X!.sXgXgXkXgXfX6X/.sXkXkX",
"nXMXeXQ.I.wXMXnXnXnXMX XI.wXMXnXnXnXMX XI.wXMXnXnXnXnX XI.wXMXMXeXnXrX XI.wXMXMXnXMXeXQ.I.wXMXnXnXnXMX XI.wXMXMXnXMXeXQ.I.wXMXnX",
"G.G.G.) J.F.G.G.D.G.G.) J.F.G.G.D.G.G.) I.F.G.G.G.G.D.) J.D.G.G.G.G.G.) J.D.G.D.G.G.G.) J.F.G.G.D.G.G.) I.D.G.D.G.G.G.) J.F.G.G.",
"j j a F J.S j j j j a G J.S j j j j a G J.S d j j j d G J.Z j j j Z a G J.j j S j j a F J.S j j j j a G J.j j S j j a F J.S j j ",
"T.pXdXdXdXdXdX1XT.pXdXdXdXdXdX1XT.pXdXdXdXdXdX1XT.pXdXsXsXdXdX1X!.pXdXdXdXdXdX1XT.pXdXdXdXdXdX1XT.pXdXdXdXdXdX1XT.pXdXdXdXdXdX1X",
"J.:XrXeXeXeXrXQ.P.:XeXrXeXeXrXQ.P.:XeXrXeXeXrX'.P.:XeXeXeXrXbX}.J.>XeXeXnXeXbX'.J.:XrXeXeXeXrXQ.P.:XeXrXeXeXbX'.J.:XrXeXeXeXrXQ.",
"P.N.Z.D.D.D.G.k.^ D.D.B.D.D.G.k.^ D.D.B.B.D.Z.k.J B.D.D.D.D.Z.k.J D.D.D.D.D.Z.k.P.N.Z.D.D.D.G.k.^ D.D.B.B.D.Z.k.P.N.Z.D.D.D.G.k.",
"J j a d d a d F J j a d d a d F J j a d d a d F J d a d d a i F J j a s s a i F J j a d d a d F J j a d d a i F J j a d d a d F ",
"aXaXaX<XY.9XaXpXaXaXaX<XY.9XaXpXaXaXaX<XR.9XaXpXaX9XaX<XY.9XaXaXaXaXaX<XR.9XaXaXaXaXaX<XY.9XaXpXaXaXaX<XR.9XaXaXaXaXaX<XY.9XaXpX",
"0X0X0XE.^ ;X0X0X0X>X0XE.^ ;X0X0X0X>X0XE.^ ;X0X0X0X0X0X_.^ ;X0X0X0X>X0X'.^ ;X0X0X0X0X0XE.^ ;X0X0X0X>X0XE.^ ;X0X0X0X0X0XE.^ ;X0X0X",
"B.D.Z./ H B.D.Z.C.Z.Z./ H B.D.Z.C.Z.Z./ H B.Z.Z.Z.C.n./ ^ B.Z.C.Z.Z.Z./ H C.C.Z.B.D.Z./ H B.D.Z.C.Z.Z./ H C.C.Z.B.D.Z./ H B.D.Z.",
"i i i L H d i i i i i L H d i i i i i L H s i s i i i L H s i i i i i L H a i i i i i L H d i i i i i L H a i i i i i L H d i i ",
"I.5XqXqXqXqXqX.XI.qXqXqXqXqXqX.XI.qXqXqXqX8XqX.XI.qXqXqXqXqXqX.XI.qXqXqXqXqXqX.XI.5XqXqXqXqXqX.XI.qXqXqXqXqXqX.XI.5XqXqXqXqXqX.X",
"H *X>X>X>X>X>X_.H OX>X>X>X>X>X_.H OX>X>X>X>X>X_.H *X0X>X>X;X;X_.^ *X>X>X>X>X>XE.H *X>X>X>X>X>X_.H OX>X>X>X>X>XE.H *X>X>X>X>X>X_.",
"~ v.n.v.v.n.m./ ~ v.n.n.v.n.m./ ~ v.n.n.n.C.n./ H X.n.n.C.C.v./ ~ v.n.n.v.v.c./ ~ v.n.v.v.n.m./ ~ v.n.n.n.v.c./ ~ v.n.v.v.n.m./ ",
"D i p i p i p Z D i p p p i p Z D i p p p i p Z ~ i p p p i p S ~ i i p p p p S D i p i p i p Z D i p p p p p S D i p i p i p Z ",
"5X5X8X~.P.3X5X5X8X5X5X~.P.3X5X5X8X5X5X~.P.3X5X5X4X5X5X|.P.3X8X5X5X5X5X~.P.3X5X5X5X5X8X~.P.3X5X5X8X5X5X~.P.3X5X5X5X5X8X~.P.3X5X5X",
"=X=X-XV.~ $X=X=X$X=X-X` ~ $X=X=X$X=X-X` ~ $X=X$X=X-X-X` ~ $X=X=X=X=X-X` ~ $X=X=X=X=X-XV.~ $X=X=X$X=X-X` ~ $X=X=X=X=X-XV.~ $X=X=X",
"c.c.c.W G X.c.c.n.n.c.W G X.c.c.n.n.c.W G X.v.n.v.c.n./ G X.c.c.c.c.c.R G X.c.c.c.c.c.W G X.c.c.n.n.c.W G X.c.c.c.c.c.W G X.c.c.",
"p p p Z D p p p p p t Z D p p p p p t Z D p t p p p p j F i p p p p t j D p p p p p p Z D p p p p p t Z D p p p p p p Z D p p p ",
"^ @X2X2X2X2X2XW.^ @X2X2X2X2X2XW.^ @X2X2X2X2X2XW.^ @X2X2X2X,X4XW.^ @X2X2X2X2X2XW.^ @X2X2X2X2X2XW.^ @X2X2X2X2X2XW.^ @X2X2X2X2X2XW.",
"F G.%X#X#X#X#X` F D.%X%X#X#X#X` F D.%X%X#X#X%X` G F.#X#X#X#X#X( F G.%X%X#X#X#X( F G.%X#X#X#X#X` F D.%X%X#X#X#X( F G.%X#X#X#X#X` ",
"F } | c.| | ..P L }  .| | | ..P L }  .| c.| ..P F } ..| | |  .P F |  .| | | ..W F } | c.| | ..P L }  .| c.| ..W F } | c.| | ..P ",
"A p r r r t r a A p r t r t r a A p r t r t t a A p r r r t r a F p t r r r r a A p r r r t r a A p r t r r r a A p r r r t r a ",
"+X@X@XE.~ XX+X@X+X@X+XE.~ XX+X@X+X@X+XE.~ |.+X+X+X@X@XE.~  X@X@X+X@X@XE.~ |.@X@X+X@X@XE.~ XX+X@X+X@X+XE.~ |.@X@X+X@X@XE.~ XX+X@X",
"G.H.G.! L A.H.G.H.H.H.! L A.H.G.H.H.H.! L D.H.A.H.H.G.! L A.#XH.H.H.H.! F A.H.G.G.H.G.! L A.H.G.H.H.H.! L A.H.G.G.H.G.! L A.H.G.",
" . . .P L  . . . . . .P L  . . . . . .P K  . . . . . .P S  . . . . . .P S {  . . . . .P L  . . . . . .P K {  . . . . .P L  . . .",
"e r e i A r e r t e e i A r e r t e e i Z r t e e r e i A r r e r r e i A r r e e r e i A r e r t e e i Z r r e e r e i A r e r ",
"U '.}.}.}.}.}.) G '.}.}.}.}.}.) G '.}.}.}.}.}.) G }.}.}.}.}.}.) F '.}.}.}.}.}.) U '.}.}.}.}.}.) G '.}.}.}.}.}.) U '.}.}.}.}.}.) ",
"A C.A.A.A.A.A.W S C.A.A.A.A.A.W S C.A.A.A.A.S.W S C.A.A.Z.A.S.W A C.S.Z.A.A.A.W A C.A.A.A.A.A.W S C.A.A.A.A.A.W A C.A.A.A.A.A.W ",
"j N { { { { { k Z N V { { { { k Z N V { { { V k Z { [ { { { V k S { { { { { V k j N { { { { { k Z N V { { { V k j N { { { { { k ",
"A r e e e e e p a e e e e e e p a e e e e e e p a r e e e e 0 p A e e e e e e p A r e e e e e p a e e e e e e p A r e e e e e p ",
"_.'.[.) L [.].'.'.'.[._ L [.].'.'.'.[._ L E.'.[.'.'.[._ L `.'.[.'.'.'._ L _.'.'._.'.[.) L [.].'.'.'.[._ L _.'.'._.'.[.) L [.].'.",
"n.C.m.Y j n.m.m.m.m.n.Y j n.m.m.m.m.n.Y a c.m.m.n.n.m.P a o.m.C.m.m.m.I a c.m.v.n.C.m.Y j n.m.m.m.m.n.Y a c.m.v.n.C.m.Y j n.m.m.",
"{ V V h a N N N ' N N h a N N N ' N N h j N N { V { ' h a N { V N ' V h a N ] N { V V h a N N N ' N N h j N ] N { V V h a N N N ",
"0 0 0 p u e e e e e 9 t u e e e e e 9 t u e 0 e e 0 e p u e 9 e e e 0 t a e 0 e 0 0 0 p u e e e e e 9 t u e 0 e 0 0 0 p u e e e ",
"S V.`.V.`.`.]./ S V.`.`.`.`.]./ S V.`.`.`.`.`./ S V.`.`.V.V.`./ S V.V.`.`.`.`./ S V.`.V.`.`.]./ S V.`.`.`.`.`./ S V.`.V.`.`.]./ ",
"a ..b.M.M.b.b.C a ..n.b.M.b.b.C 2.[ n.b.b.M.M.C a ..b.b.M.b.b.C a  .M.M.b.b.M.C a ..b.M.M.b.b.C a ..n.b.b.b.M.C a ..b.M.M.b.b.C ",
"i N ] B V ] ] h a ' B B V ] ] 3 y.x B B c c c h i ' V B B ' ' h a N ] B ' ] ] h i N ] B V ] ] h a ' B B c ] ] h i N ] B V ] ] h ",
"u 9 9 w w 9 9 t i 4   9 w 9 9 ; *.e 4 <., 9 9 t u 9 9 9 9 w w t u e w 9 w 9 9 t u 9 9 w > 9 9 t i e 9 9 0 9 9 t u 9 9 w w 9 9 t ",
"` ` f.n j ` V.z a.&.` R j ` V.3.=.g.o @.a.E V.j.` O.O.R j M z ` j.O.O.T j O.O.O.` ` V.8.5 ` V.` N.` ` R j O.O.O.v B.V.R j ` V.` ",
"b...,.7.i  .z.r.@ 5...h i  .b.5.9.p.w.v i  .......b...h i ,.h.......b.h u  .+ 4.x...x.% 5  .b.....b...h i  .b...z.# x.C n 5.x...",
"c c 7 X d.c 7 #.p.6.c g p c c c e.q.*.g p 6 x c c c c g 2.@ 7 c ] c c g i c b *.a.c 8 +.; c x 8 c c c g p c c c 7 p.,.1 =.% c c ",
"4 4 <.u.$.4 1 X @ AX< r y @.<.4 = % X , f 9.DX1 q 9   w a.;.w q   9 9 e p 9 , e.;.3.1.q.. # X #.,.<.9 r p 9   w O @ SXw.r.@.@.:.",
"* :.p.0.X #.7.w.q.X #.6.=.r.:.$.@.p.y.@.q.. p.- i ! 4.>.>.X E T m l E ! Q h.+ -.-.@ @.0.r.t.SX=.+ m ! ! ! Q O.I 0.q.X #.:.;.r.q.",
":.#.$ $ q.q.9.@.$ . i.t.. % +.i.u.t.% #.* >.@ $ 6.&.@ =.q.$.e.2 -.:.3 l.a.:.$.& AXZXt.$ %.$.$ 9.w.[ ..b : 7...d.@.$ . i.t.. % q.",
":.:.p.y.9.X % s.r.. @ s.ZXt.9.r.%.=.& i.ZX9.r.9.* =.ZX-.$ 9.%.@ -.-.$.% :.AX%.#.@ @ $ u.p.%.@.:.+.:.:.p.y.9.X % s.r.. @ s.ZXt.;.",
"9.@ u.9.t.%.t.@.>.t.#.$.@ -.9.$ @.AX+.+.$ +.>.+.t.@.$.u.. i.ZX%.+.-.t.q.+.=.-.y.;.t.0.:.q.DX@.q.AX-.@ u.9.t.%.t.@.>.t.#.$.@ -.0."
};
