/* XPM */
static char *_a95e95863d24979bff70f537818434b1OIJ59bLg9g17x3Q[] = {
/* columns rows colors chars-per-pixel */
"64 64 30 1 ",
"  c #222222",
". c #272727",
"X c gray17",
"o c #2F2F2F",
"O c gray20",
"+ c #373737",
"@ c #3A3A3A",
"# c #3E3E3E",
"$ c gray25",
"% c #464646",
"& c #494949",
"* c #4E4E4E",
"= c #535353",
"- c gray34",
"; c #585858",
": c #5D5D5D",
"> c #606060",
", c gray40",
"< c #686868",
"1 c #6F6F6F",
"2 c #727272",
"3 c gray46",
"4 c #7B7B7B",
"5 c gray50",
"6 c #808080",
"7 c gray52",
"8 c #888888",
"9 c #939393",
"0 c gray59",
"q c #989898",
/* pixels */
"0005<9000005<9000005<9q000q5<90000q5<9000005<9000005<9000005<900",
"555:*265556>*265556>*365655:*265655:*275555:*265556>*275555:*265",
":::=*;:::::=*;:::::=*;:::::=*;:::::-*;:::::=*;:::::=*;:::::=*;::",
"@@+$&@@@@@+$&@@@@@+$&@@@@@+$&@+@@@+#&@@@@@+$&@@@@@+$&@@@@@+$&@@@",
";6888781;6778781;6778782;6877771;6878781;6888781;6778881;6888781",
"*355545:*266545:*266555:*265665:*365556:*355545:*266556:*355545:",
"*;;;;;:=*-;;;;:=*-;;;;;=&-;:;;;*&-;;;;;=*;;;;;:=*-;;;;;=*;;;;;:=",
"%+++@@+#%+++@@+#%++++@+#&++++++#&@+@+++#%+++@@+#%++++++#%+++@@+#",
"767<;6767671;6767671;5766671;5677771-577767<;6767671;577767<;676",
"444;&145445:&145445:&254555:&155445;&254444;&145445:&254444;&145",
"---*&=-;;;;*&=-;;;;*&=-;-;;*&=;-;--*&------*&=-;;;;*&------*&=-;",
"+++#$+++++O#$+++++O#%++++++#%@+++++#%++++++#%+O+++O#%++++++#$+++",
"-565666<-455666<-455666<-466665<-466656<-565656<-455656<-565666<",
"&133333;&133333;&133333-&<33333;&133233;&133333;&133333;&133333;",
"&=-----*%=-----*%=--;--*&=;---;*%=---;;*%=-----*&=--;;;*&=-----*",
"$+OO++O@$+OO++O@$+OOO+O#$+OO+OO@$+OO++O@$+O+++O@$+OOO+O@$+OO++O@",
"545,=355554,=455554,=354445,=454555,=344545,=455554,=344545,=355",
"232-%,22222-%<22222-%<32222-&<32222-&<32232-%,22222-%<32232-%<22",
"=-=&%*=====&%*====-&%*=====&$*==--=&%*=*=-=&%*====-&%*===-=&%*==",
"OOo@$OOOOOo@$OOOOOO@$OOOOOO@$OOOOOO@#OOOOOo@#OOOOOO@$OOOOOo@$OOO",
"=233434>*233434>*233333>*243434>=233333>*233434>*233333>=233434>",
"%,11111-%,11111-%,11111=%,11111=%,21211=%,21111-%,11111=%,11111-",
"$&&***=&$*=&**=&$**&&**%$&*****%$***=**%$&****=&$*=&&**%$&&***=&",
"#OoOOOO@#OoOOOO@#OoOOOO@#OoOOoo+#OOooOo@#OoOOOO@#OoOOOo@#OoOOOO@",
"222:*122222:&122223:*122222:*122222:*122222:&122223:*122222:*122",
",,,*$:,<,,,*$:,<,,,*$:<,,,<*$><,,,<=$><,,,,*$:,<,,,*$><,,,,*$:,<",
"***$#&*&&**%#&*&&**%#&&**&&%$&*&&**$$&&****$#&*&&**%#&&****$#&*&",
"ooo+#Oooooo+#Oooooo+#oooooo+@oooooo+@oooooo+#Oooooo+#oooooo+#Ooo",
"&,11111-&<11<11-&<111<<;&<111<1;%<1<1<1-&,11111-&<111<1-&,11111-",
"#:,,,,,*#;,,,,,&#;,,>>,*#:,,>>>*$:,>,,,*#:,,,,,*#;,,>,,*#:,,,,,*",
"#%&%%&&$#%&%%&&$#%&%&&&$#%%%&&&$#%&&&%%$#%&%%&&$#%&%&%%$#%&%%&&$",
"+ooooXXO@ooooXXO@oooooXO@oXoooXO@ooooXXO+ooooXXO@ooooXXO+ooooXXO",
",,<-$>,,<,<-$>,,<,<-%>,,,,,-%,<,,,,-%>,,<,<-$>,,<,<-%>,,<,<-$>,,",
":::&#->::::&#->::::&#;:;:::%#-:::>:%@-:::::&#->::::&#-:::::&#->:",
"%%%#@%%%%%%#@%%%%%%#@$%&%%%#@$%%%%%#@$%%%%%#@%%%%%%#@$%%%%%#@%%%",
"XXXO+XXXXXXO+XXXXXXO+XXXXXXO+XXXXXXO+XXXXXXO+XXXXXXO+XXXXXXO+XXX",
"$:>>>>>=$:>>>>>=$:>>>>>*$:>>>>>=$:>>>>>=$:>>>>>=$:>>>>>*$:>>>>>=",
"@=;-;;;%@=;;;;;%@=;;;;;%@=;;;-;%@=:;;;;%@=;-;;;%@=;;;;;$@=;-;;;%",
"@$$$$$$@+#$$$$$@+#$$$$$#+$$$$$$@+#$$$$$#@$$$$$$@+#$$$$$#@$$$$$$@",
"+X.XXXXo+XXXXXXo+XXXX..oOXXXXXXo+X.XXXXo+X.XXXXo+XXXXXXo+X.XXXXo",
":;;&#;:::;:&#;:::;:&#;::;;:*#-;;;;:&#;:;:;;&#;:::;:&#;:;:;;&#;::",
"=--$+*-===-$+*-===-$+*=====$+=-==-=$@*--=--$+*-===-$+*--=--$+*-=",
"###@+####$$@+####$$@+##$###@+######@+###$$#@+####$$@+######@+###",
"...oOX.XX..oOX.XX..oOX...X.oOX.X...oOX.....oOX.XX..oOX.....oOX.X",
"@=-----&@=-----&@=-----%@------&@=-----%@=-----&@=-----&@=-----&",
"+&==*==#O&==*==#O&==***#+&==**=#+&***==#O&==*==#O&==*==#+&==**=#",
"O@@@##@+O@@@##@+O@@@@@@+O@###@@+O####@@+O@@@##@+O@@@@@@+O@@@#@@+",
"O......Xo......Xo......XO..... Xo......XO......Xo......XO......X",
"===$@*=*===$+*=====%@*=====$+*=====%@*=*===$+*=====%@*=====$+*==",
"&&&@O%&&&&&@O%&&&&&@O%*&&&&@O%&&&&&@O%&&&&&@O%&&&&&@O%&&&&&@O%&&",
"@@@Oo+@@@@@Oo+@@+@+OO++@@@@OO@@@+@@OO++@@@@+o+@@+++OO++@@@@+o+@@",
"...Xo......Xo... ..Xo......Xo. ... Xo......Xo... ..Xo......Xo...",
"+&*****$+&*****$+&*****$+&*****#+&*****$+&*****$+&*****$+&*****$",
"o$%&&%%+o$&%&%%+o$&%%&%@O$%%&%%+o$&&%%&@o$%&&%%+o$&%%%&@o$%&&%%+",
"o+++@++Oo+++@++Oo+++++OOo+@+++@Oo++++++Oo+++@++Oo++++++Oo+++@++O",
"X  ..  .X.  .  .X.  .. XX.     .o.     .X  ..  .X.  .  .X  ..  .",
"&&&#O%&&&&&#O%&&&&&#O%&&&&&#O%&&&&&#O&&%&&&#O%&&&&&#O&&&&&&#O%&&",
"%$%+o#%$%%%+o#%$%%%+o#$$$%%+o#%$$$%+o#%$%$%+o#%$%%%+o#%$%$%+o#%$",
"++OoXO++O++OXO++OO+OoO+++++ooOO+++OooO++++OoXO++OO+OXOO+++OoXO++",
"   .X      .X      .X      .X      .X  .   .X      .X  .   .X   ",
"O%%%%%%@o$%%%%%@o$%%%%%@o%%%%$%@O%%%%%%@O%%%%%%@o$%%%%%@O%%%%%%@",
"X#$$$$$+X#$$$$$+X#$$$$$+o@$$$$$+o#$$$$$+X#$$$$$+X#$$$$$+X#$$$$$+",
"oOOOOOOoXOO+OOOoXOO++OOooOO+O++OoO+O++OooOOOOOOoXOO+++OooOOOOOOo",
"OoXooooOOooooooOOoooooooOoXoXooOOooooXoOOoXooooOOooooooOOoXooooO"
};
