/* XPM */
static char *_90904ba5ff84cd78900257bd02703f2nCDmf0z3ZKsQlJ0X[] = {
/* columns rows colors chars-per-pixel */
"64 64 88 1 ",
"  c #000200",
". c #070000",
"X c #090100",
"o c #0F0000",
"O c #100101",
"+ c #160003",
"@ c #190100",
"# c #1E0100",
"$ c #120800",
"% c #220101",
"& c #250003",
"* c #230304",
"= c #200604",
"- c #2A0000",
"; c #2E0102",
": c #280400",
"> c #330000",
", c #350200",
"< c #340703",
"1 c #3B0601",
"2 c #3A0B00",
"3 c #3E0800",
"4 c #351100",
"5 c #3E1400",
"6 c #410B02",
"7 c #420C03",
"8 c #440E00",
"9 c #411100",
"0 c #441402",
"q c #491800",
"w c #4D1B00",
"e c #4F1D00",
"r c #511E02",
"t c #4E2102",
"y c #4A2700",
"u c #4F2600",
"i c #562200",
"p c #5B2600",
"a c #5C2700",
"s c #5A2A00",
"d c #5C2C01",
"f c #5B2B08",
"g c #612F00",
"h c #623000",
"j c #643201",
"k c #693600",
"l c #673900",
"z c #6C3800",
"x c #6A3C01",
"c c #723D00",
"v c #723D05",
"b c #6F4000",
"n c #734300",
"m c #774603",
"M c #784704",
"N c #7A4800",
"B c #7E4B00",
"V c #7F4C00",
"C c #794805",
"Z c #804D01",
"A c #824F04",
"S c #804E0D",
"D c #855100",
"F c #835005",
"G c #855207",
"H c #8A5501",
"J c #8C5703",
"K c #8B5B05",
"L c #8C5C06",
"P c #88540A",
"I c #8B560E",
"U c #8C570F",
"Y c #8D5D08",
"T c #8D5D13",
"R c #8E5E14",
"E c #93620F",
"W c #966513",
"Q c #976614",
"! c #996716",
"~ c #9B6817",
"^ c #9E6B1B",
"/ c #9F6C1C",
"( c #A26F1F",
") c #A57121",
"_ c #A87424",
"` c #AE7929",
"' c #B07B2B",
"] c #B27D2D",
/* pixels */
"ckNBGNBAVNAmFZBnBNFYBnJGkcAHcGPzmmh> LFhFBFNnzzkcmczNcnmNNcnNncN",
"NmcNcBNNmZNmGnAFFmjmVBNkZNAnNZNnzmn%.YPncBNmncPzcNcckcDnzckZnZBn",
"NNVDmDBnHDVBmVNPFPJnDZPFVPBBmGcBcNB1.^PcznNYnNzcsmNmnNnVncAmnVVB",
"BnJGGNmVEBFJYHmGPZBGVFNHGNzFJNZzNcp1.YINmBNznNNNPmNZNGFGnzZZPGBH",
"ZmDNZZGHNAPGHVGPHmBNHPYJFPBZZNnBZNm-.HPNmBmYHNhmAcNNNmmnNnV!JHAH",
"JPNnBZHKNNLPPPPYBNzZAZPzJZPNHNnNmnz#.(BNNNcZnNNBnFFNGnGZPNBNPNAV",
"DJPNEK/FDJBJPBPZYZPPZBJGFHFZNmnNPnn-.YPmBBGNkBNZNVnnmNVNncNNNANB",
"skjhgcmkzckzknzVzzckcdzjzhkc0kpdzck: Vjazjkzzphzhhizhsdhjzhchkzh",
":>6&-,,,>963;:330,3,%,,;1-;;,>&;;9;-&#-,;-#&;-%,3-;;;6;#%;>%>&&;",
"ZVDmHFDPLEAPk;q!PNBBYJ^JHJJJnNnGBBmmnLAJJKYnmVFNJFGEHczNBPABVVGZ",
"`E(!_((`~E(nk-d!_EJ]))()(!^)KQKQ(WQ^~(F)^P'E~KK^~^W!EQ(K~QE^^(~^",
"BPYHVNIBHJNBh&0EZFAZZBHJEZVDBVZknDBcnNnmmPPDBNcnzmmmmNzNmmnNNBmH",
"mNmFZPZnnVNNz#rEFZZZZnmZAccmNcNnnczblBnNmNNNmNnmjncnNccNnNzBVNNB",
"BmFNAGNNnVIBc#dEIkBnjAPVJNnBNmBcnNnmcnnnnVcnncNnnmmncnmmmVNBGNVc",
"PFWVYnBGAnNZa+iEPGENFPPVBFNTzVCcnnncmcNnNVBcZcABhnBnmNABBcPNAnFF",
"PVNFnVYDNPVPk>kYPBFmFPmZPZcFNNVNZkNcPzmmnmYmBmFGDPmcNFDAJFnEJZHN",
"NZKFVNZPDBLNp-s!HGNDPFnNVNZDNBZnBBDcBDZNZmnZnNkVJFBNAmZEBcBNZVFV",
"FVNFnnZNcJcNp-kEGZZnkVNNAmZNZnBnnNcnnmNkAVPNZGNznmFnmmZmcNBmDmmP",
"HcZVGZZVJPBAj#pEPnkZYHDZPABBFBNNncnhncmNNNZFDmnmBBBZzNGNcNnNNNAF",
"ANZBAcNFHFPZr%qFPPFnNDFPBHmnZBNmnnmncBcAnZFNNmnmmNnPZDVnnkBFBPJF",
"NPPZAHJFHPVNp#hLADFDJZQPNFmNNBFnBNNVnmnNNNJBNmDNnBnHNFKcNVFBNPYH",
"ZZJmBKGAFFFNh#qEnVNFGVGNmZmcmNFnNNGnBmNznBDNmNGHHNNNncNPNNFnNBNP",
"HFJNZPGJPNNZd&qJPNPZYNNPPBNNmNPPHVZDBVFNNNFPJZnZGGHNNNBNVBNZBABP",
"ephpqisqdpsph2qGq09pgjwwpirip6hq9rwiws1iwq9qeiqiapkiipie9wpehwih",
"%%>,#;;,#8;#>,16>1&-#--:;%4-&e<->:-O#%&O#+@##O%#%;1:#O#%@O%#-;>,",
"E(()YE'W!(^Y(^R((/()!((^QEni#zYE~QE(YW^^!^HPW^E_`(!(YEYQJ~((!^!)",
"^E!EE!!W(^E'WE)E_(EE(((EQWMwoz^)W^EEQ)KEQ!)_WYEWJE!~^`^)/EQ!(EG'",
"NNPNNAmcZNnVNNAccNZLNBPAZNN9,nANBGNNnPhABBFAmFPZAZPNNnjmmZPGnABG",
"BNnHmBZGBLABFVPNPNHGBFPNNGk0#mNZmmBmNnnBnjmAncGBENHBccnBcnZBcnnB",
"BBNAmBEBGVKNNZFjNZnmPBYBNBn9%IBmBNmNNZNVNmNcNmnBmAPFNBBBZNNJGNFZ",
"ANAPNNNVBVBBHZZBANzBNZZNNBN0oBFnnNmcnNHcmZNnmcZBnnNNnmZccBAZNnmN",
"nnNNDBNVBNZnFZBnNNVLNnHAzch;ojZkNznkcmzkFBZnnzkjcNzzmcmnNnnnmNnN",
"NmnNcNNNmAVnPmZAGNkNZBNkVmNq+zENmAZNNnnmnZNmncHccNcczcDczbzAnBNn",
"NnVFmABcJGBBNVNPPPHmFZPFBZz0+zLNmNBcmcnckcmKnNzcdmmmcBcBNcZmnBZV",
"NmJPFNmVEBFJEFcFHZNZZANHGBc9%zEcBmNNkNNNnNNkcchnmnmNNVZPnkAVGFBP",
"ZmPBBZFHNFPPJZGPPmZNHPYVVZmp:j!NNmnnnNcnmNnDmmnNAcBNznNcnnNKPPAJ",
"PPncNBHKNNJPFFFLFnnmVNmmPNjh&kYnnBckccmmVnmzjmcnBncncmncmxnNcBNV",
"NNncNNPBFGANAnNBNmNmZNBFDNBh-kYncZcknAnmBnzZnkzNNnzzcnmNkuZNzmBm",
"BcZABNGNkPZZmPFFAmmBNZnZNFmk%kKnnckzmnncBnZNNkznznNncNmnhymNnNnN",
"NmNnBPBNBNmcNBHcnBZFVNZmkknd+cYnmmnzzzjcccNcNmhjhcBncmckhnzmpBnh",
",-&-,,-19,,31->,61,61>31;;50&tf,,9-;-%-@#;6;-;#,%;-->:#-#-#-11%>",
"..XXO@&O.O#*X#&@--+++..%@X.....O..o.. +.. .. .  . X.. .X..$ ... ",
"QPLWBEEYQEYYEYFFFE)_JEEKYJPLYYHEKHJDFHHPJ!J/^QEJEP(KJQKZ-#~HY^YL",
"KHKEEYY!~^EE~W~QQE~EEYE!(YEHYFPZPZFJHFHP/YYZPBHEFLYYHKIB;&)YYYEY",
"cNAncNmzNBBNmmnNnBnNmcNNNznzzcnzcNcmchzccnmzcjcNckNnzBmV>.^GNcnm",
"NcnhcmnnBmNnNNnmcNnBNFmcZknnckckcccckknzNBnzkjNcNknzckBz<+KVmcnm",
"NnnnNzkVNnNcnNnNmczmncnzNnkBmckkccnjckHmBnGnhhznznzjjmNN3#^Pnczc",
"nNBmzNnAcnZBZHBNmZVBNnmNAnNnnzccnznkzcccNnmmzkkNnzBcmnFm>o(EnGNB",
"VchBmnNzmDNmNmNVnNANNNnNnZmszcnzmcnnzkcmzznhnjzncasNpVcN6XEIBNBm",
"NcNBnmNzcBFGcNFcBnzNmzzBAZzncncccNNnnccnmnnnkkkzNncjnnNn1@LGnVNZ",
"HkmNNFmAmjZDVhAcNFcmAnnNnZVzmcNncmnzzmmNcnnhzcNcnnzHmmPA##^ScNNB",
"VcNNNGnVNPFcmDkDcBZZNmVnBFzNNnNnnnncVmcZcBNzczkDnNmNNmVY;%YZnnNN",
"AFcBABnBmNPnBnNBNPnFNBGmZAFcNmNmncmcnGnmBVNmNNmAnBBZBBNB1OVPBDmm",
"NNZNNZJAFVFPNAAJZzBnBFDZFANNNcNnnBNmmknnZNnNkcznmnmBcNVn%@^ZBZBB",
"VZmBFnVNNZVJVHEcBAVHBZFDnnNnNNNNNNnndnvnmBFZZmmmABNNnNAN%XLBVKHn",
"cnnncmzncnjNBnZnBcnnkNNmmkccczhzchzcpzczcnkzAzhhhNnMcnkn:oYnncBc",
"1,:->-;;:-,,,>>;17>&1-;>&##;#:#%>&,%O@&&&@>;&+%-6;;-#-O>+O=&,%;>",
"izpiipsjkjspkshakpdjhsdkpkannccnzkzq:PAnzznNncekjnzcjskznckhcdzp",
"^YEEBWYEWE_(YF(^E!/^EYL~EEEPZHEJPLH,#YJEKYYFKJLYEYYEYYKWEYZY!EJ!",
"HAZFBHFHPFJJPAHFHZFKGPPENGNnnznmNNN>.L!mFmPcBcNmNzNBcmNNNVnmBNVB",
"ncccNcFmzmnnNzNNmVmmccDkNnckkkjzkkB>oJEzmjzzzczczkkhzzczzhccnnzA",
"mkNzNNzNzmcnNzNmNBzcmcNnnnnnnzkcnnn;+KJndhmjkkkzNkczcNnNknncNmNc",
"cnzczccNnNnmckcANFkcDZnVNBNncnschzn;.HIjkmzdksjzcchgichzhczznNnc",
"BnNEnmnBmNmBHZANNNkNNNNnNVNZzNmccAN> EUnznNnncZBncnnccZkccnznBcm"
};
